<?xml version="1.0" encoding="UTF-8" standalone="no"?>
<svg
   xmlns:dc="http://purl.org/dc/elements/1.1/"
   xmlns:cc="http://creativecommons.org/ns#"
   xmlns:rdf="http://www.w3.org/1999/02/22-rdf-syntax-ns#"
   xmlns:svg="http://www.w3.org/2000/svg"
   xmlns="http://www.w3.org/2000/svg"
   xmlns:sodipodi="http://sodipodi.sourceforge.net/DTD/sodipodi-0.dtd"
   xmlns:inkscape="http://www.inkscape.org/namespaces/inkscape"
   height="300"
   viewBox="0 0 47.2 48"
   width="295"
   id="svg3101"
   version="1.1"
   inkscape:version="0.48.1 "
   sodipodi:docname="castrol__logo1968.svg">
  <metadata
     id="metadata3119">
    <rdf:RDF>
      <cc:Work
         rdf:about="">
        <dc:format>image/svg+xml</dc:format>
        <dc:type
           rdf:resource="http://purl.org/dc/dcmitype/StillImage" />
        <dc:title></dc:title>
      </cc:Work>
    </rdf:RDF>
  </metadata>
  <defs
     id="defs3117" />
  <sodipodi:namedview
     pagecolor="#ffffff"
     bordercolor="#666666"
     borderopacity="1"
     objecttolerance="10"
     gridtolerance="10"
     guidetolerance="10"
     inkscape:pageopacity="0"
     inkscape:pageshadow="2"
     inkscape:window-width="1366"
     inkscape:window-height="706"
     id="namedview3115"
     showgrid="false"
     inkscape:zoom="1.0958171"
     inkscape:cx="218.50718"
     inkscape:cy="114.92419"
     inkscape:window-x="-8"
     inkscape:window-y="-8"
     inkscape:window-maximized="1"
     inkscape:current-layer="svg3101" />
  <g
     id="g3128"
     transform="matrix(1.0289007,0,0,1.0289007,-0.47951147,-2.1203646)">
    <path
       d="M 1.766733,47.335537 H 45.255568 V 3.1166527 H 1.766733 z"
       id="path3105"
       inkscape:connector-curvature="0"
       style="fill:#ffffff;fill-rule:evenodd" />
    <path
       d="M 1.4353341,2.6375777 V 48.106631 H 45.732743 V 2.6375777 z M 44.677864,47.052104 H 2.4900957 V 3.6921051 H 44.677864 z"
       id="path3107"
       inkscape:connector-curvature="0"
       style="fill:#007c5c;fill-rule:evenodd" />
    <path
       d="m 14.110743,23.695331 0.303335,-1.106293 c 0.243019,-0.858121 0.0294,-1.045978 -0.352407,-1.045978 -0.635949,-0.01335 -1.125735,0.388831 -1.303637,1.045978 L 11.4551,27.081202 c -0.157523,0.563102 0.170641,0.89841 0.703058,0.89841 0.694859,0 0.844886,-0.345029 1.113437,-1.259835 l 0.247118,-0.761733 h 2.037848 l -0.213389,0.637472 c -0.486975,1.729827 -1.677944,2.936373 -3.762404,2.936373 -1.8759908,0 -2.4348763,-1.152906 -1.8590088,-3.204339 l 0.9130488,-3.181969 c 0.611355,-2.185533 1.907847,-3.20469 3.77236,-3.20469 1.737089,0 2.54766,0.858238 1.97191,2.909905 l -0.230136,0.844535 z m 24.017785,5.622233 2.666183,-9.043239 h 1.62735 l -2.665949,9.043239 z m -3.729846,-6.552733 c -1.406231,0 -1.636953,0.4673 -1.845774,1.083924 l -1.596665,5.473494 h -1.60053 l 2.245146,-7.817369 h 1.713665 l -0.117117,0.381101 C 33.841905,21.329203 34.014888,21.3586 34.779315,21.3586 z m -9.389556,1.230204 c 0.09405,-0.509462 0.268199,-1.230204 -0.322308,-1.230204 -0.358965,0 -0.892202,0.372435 -1.014941,0.814905 -0.107397,0.402416 -0.09838,0.679048 0.28237,0.913518 0.786328,0.48393 2.427498,0.283893 1.78054,2.626246 -0.470813,1.676305 -1.743882,2.324902 -3.098699,2.324902 -1.458934,0 -1.883134,-0.91422 -1.31851,-2.724625 h 1.465142 c -0.165371,0.523048 -0.324768,1.379646 0.231073,1.378475 0.735381,-0.0014 0.97477,-0.582777 1.113086,-1.06577 0.05622,-0.227911 -0.05762,-0.559706 -0.172632,-0.693571 -0.616741,-0.455939 -1.477673,-0.407804 -1.84554,-1.171879 -0.192541,-0.415885 -0.134216,-0.829193 0.02928,-1.376835 0.498101,-1.669981 1.414078,-2.284146 2.698976,-2.248425 1.842027,0.05106 2.340245,0.777544 1.812981,2.44038 z m 4.14128,4.101812 -0.351353,1.230438 h -1.259951 c -0.995735,0 -1.165321,-1.233366 -0.849455,-2.373272 l 1.349196,-4.260975 -0.616859,0.01323 0.293145,-1.201393 h 0.731049 l 0.352875,-1.142483 h 1.581908 L 30.02832,21.50488 h 0.880022 l -0.292794,1.201393 h -0.880139 l -1.405178,4.658003 c -0.121568,0.429236 0.166893,0.732571 0.410263,0.732571 z"
       id="path3109"
       inkscape:connector-curvature="0"
       style="fill:#de012a;fill-rule:evenodd" />
    <path
       d="m 41.609616,31.78008 c -2.676138,7.191726 -9.553638,12.30965 -17.615431,12.30965 -8.058163,0 -14.9329693,-5.113591 -17.6118013,-12.29993 z M 41.65131,18.549299 C 39.005154,11.298545 32.098023,6.1270981 23.994185,6.1270981 c -2.128848,0 -4.126758,0.3570917 -6.035073,1.0149416 L 14.502033,18.545785 z M 6.2747525,31.493259 c -0.7062194,-1.9951 -1.0907166,-4.144794 -1.0907166,-6.384903 0,-6.186155 2.9326259,-11.681315 7.4721061,-15.1465918 z"
       id="path3111"
       inkscape:connector-curvature="0"
       style="fill:#007c5c;fill-rule:evenodd" />
    <path
       d="m 19.573579,21.610286 c -1.028527,0.01171 -2.012667,0.187739 -2.610553,2.091955 h 1.682395 c 0.104704,-0.380866 0.192659,-0.878851 0.924996,-0.878851 0.585939,0 0.489669,0.433804 0.380749,0.849337 -0.226505,0.804599 -0.959662,0.775554 -1.84554,1.084276 -0.701886,0.24419 -1.435628,0.234235 -1.816495,1.376835 l -0.468822,1.552746 c -0.322307,1.083923 -0.01522,1.816494 0.849689,1.816494 0.729643,0 1.024428,-0.249694 1.658972,-0.839733 l 0.06945,0.664057 1.662134,0.0062 c -0.0094,-0.268082 0.0056,-0.549516 0.07847,-0.831184 l 1.279393,-4.598976 c 0.456993,-1.649485 -0.0267,-2.313776 -1.844837,-2.293163 z m -0.568958,5.264087 c -0.149793,0.482524 -0.384263,1.310195 -0.928391,1.310195 -0.440246,0 -0.740301,-0.423146 -0.603273,-0.892437 0.140775,-0.509461 0.289983,-1.028995 0.57411,-1.216852 0.285065,-0.201325 0.850626,-0.15319 1.288997,-0.380867 z m 18.203831,-5.474431 c -1.37379,0 -2.422462,0.614868 -2.901473,2.361092 l -0.855661,3.126222 c -0.474678,1.716476 0.226154,2.477272 1.546421,2.477272 1.401079,0 2.491093,-0.63021 3.057356,-2.333218 l 0.856013,-3.056887 c 0.460273,-1.689657 -0.0814,-2.574481 -1.702773,-2.574481 z m 0.108568,2.272785 -0.988707,3.720945 c -0.156235,0.429237 -0.57212,0.657147 -0.954392,0.657147 -0.381804,0 -0.476083,-0.22791 -0.389299,-0.65703 l 0.98859,-3.721062 c 0.138199,-0.482524 0.383326,-0.871238 0.81186,-0.871238 0.428533,0 0.832355,-0.153892 0.531948,0.871356 z"
       id="path3113"
       inkscape:connector-curvature="0"
       style="fill:#de012a;fill-rule:evenodd" />
  </g>
</svg>
