<?xml version="1.0" encoding="UTF-8" standalone="no"?>
<!-- Created with Inkscape (http://www.inkscape.org/) -->

<svg
   version="1.1"
   id="svg1"
   width="97.619995"
   height="97.931999"
   viewBox="0 0 97.619995 97.931999"
   sodipodi:docname="g375.svg"
   xmlns:inkscape="http://www.inkscape.org/namespaces/inkscape"
   xmlns:sodipodi="http://sodipodi.sourceforge.net/DTD/sodipodi-0.dtd"
   xmlns="http://www.w3.org/2000/svg"
   xmlns:svg="http://www.w3.org/2000/svg">
  <defs
     id="defs1">
    <clipPath
       clipPathUnits="userSpaceOnUse"
       id="clipPath302">
      <path
         d="M 0,792.06 H 612 V 0.06 H 0 Z"
         id="path302" />
    </clipPath>
    <clipPath
       clipPathUnits="userSpaceOnUse"
       id="clipPath303">
      <path
         d="M 0,792.06 H 612 V 0.06 H 0 Z"
         id="path303" />
    </clipPath>
    <clipPath
       clipPathUnits="userSpaceOnUse"
       id="clipPath304">
      <path
         d="M 0,792.06 H 612 V 0.06 H 0 Z"
         id="path304" />
    </clipPath>
    <clipPath
       clipPathUnits="userSpaceOnUse"
       id="clipPath305">
      <path
         d="M 0,792.06 H 612 V 0.06 H 0 Z"
         id="path305" />
    </clipPath>
    <clipPath
       clipPathUnits="userSpaceOnUse"
       id="clipPath306">
      <path
         d="M 0,792.06 H 612 V 0.06 H 0 Z"
         id="path306" />
    </clipPath>
    <clipPath
       clipPathUnits="userSpaceOnUse"
       id="clipPath307">
      <path
         d="M 0,792.06 H 612 V 0.06 H 0 Z"
         id="path307" />
    </clipPath>
    <clipPath
       clipPathUnits="userSpaceOnUse"
       id="clipPath308">
      <path
         d="M 0,792.06 H 612 V 0.06 H 0 Z"
         id="path308" />
    </clipPath>
    <clipPath
       clipPathUnits="userSpaceOnUse"
       id="clipPath309">
      <path
         d="M 0,792.06 H 612 V 0.06 H 0 Z"
         id="path309" />
    </clipPath>
    <clipPath
       clipPathUnits="userSpaceOnUse"
       id="clipPath310">
      <path
         d="M 0,792.06 H 612 V 0.06 H 0 Z"
         id="path310" />
    </clipPath>
    <clipPath
       clipPathUnits="userSpaceOnUse"
       id="clipPath311">
      <path
         d="M 0,792.06 H 612 V 0.06 H 0 Z"
         id="path311" />
    </clipPath>
    <clipPath
       clipPathUnits="userSpaceOnUse"
       id="clipPath312">
      <path
         d="M 0,792.06 H 612 V 0.06 H 0 Z"
         transform="matrix(1,0,0,-1.5881262,-519.98101,1136.6305)"
         id="path312" />
    </clipPath>
    <clipPath
       clipPathUnits="userSpaceOnUse"
       id="clipPath313">
      <path
         d="M 0,792.06 H 612 V 0.06 H 0 Z"
         id="path313" />
    </clipPath>
    <clipPath
       clipPathUnits="userSpaceOnUse"
       id="clipPath314">
      <path
         d="M 0,792.06 H 612 V 0.06 H 0 Z"
         id="path314" />
    </clipPath>
    <clipPath
       clipPathUnits="userSpaceOnUse"
       id="clipPath315">
      <path
         d="M 0,792.06 H 612 V 0.06 H 0 Z"
         id="path315" />
    </clipPath>
    <clipPath
       clipPathUnits="userSpaceOnUse"
       id="clipPath316">
      <path
         d="M 0,792.06 H 612 V 0.06 H 0 Z"
         id="path316" />
    </clipPath>
    <clipPath
       clipPathUnits="userSpaceOnUse"
       id="clipPath317">
      <path
         d="M 0,792.06 H 612 V 0.06 H 0 Z"
         id="path317" />
    </clipPath>
    <clipPath
       clipPathUnits="userSpaceOnUse"
       id="clipPath318">
      <path
         d="M 0,792.06 H 612 V 0.06 H 0 Z"
         id="path318" />
    </clipPath>
    <clipPath
       clipPathUnits="userSpaceOnUse"
       id="clipPath319">
      <path
         d="M 0,792.06 H 612 V 0.06 H 0 Z"
         id="path319" />
    </clipPath>
    <clipPath
       clipPathUnits="userSpaceOnUse"
       id="clipPath320">
      <path
         d="M 0,792.06 H 612 V 0.06 H 0 Z"
         id="path320" />
    </clipPath>
    <clipPath
       clipPathUnits="userSpaceOnUse"
       id="clipPath321">
      <path
         d="M 0,792.06 H 612 V 0.06 H 0 Z"
         id="path321" />
    </clipPath>
    <clipPath
       clipPathUnits="userSpaceOnUse"
       id="clipPath322">
      <path
         d="M 0,792.06 H 612 V 0.06 H 0 Z"
         id="path322" />
    </clipPath>
    <clipPath
       clipPathUnits="userSpaceOnUse"
       id="clipPath323">
      <path
         d="M 0,792.06 H 612 V 0.06 H 0 Z"
         id="path323" />
    </clipPath>
    <clipPath
       clipPathUnits="userSpaceOnUse"
       id="clipPath324">
      <path
         d="M 0,792.06 H 612 V 0.06 H 0 Z"
         id="path324" />
    </clipPath>
    <clipPath
       clipPathUnits="userSpaceOnUse"
       id="clipPath325">
      <path
         d="M 0,792.06 H 612 V 0.06 H 0 Z"
         id="path325" />
    </clipPath>
    <clipPath
       clipPathUnits="userSpaceOnUse"
       id="clipPath326">
      <path
         d="M 0,792.06 H 612 V 0.06 H 0 Z"
         id="path326" />
    </clipPath>
    <clipPath
       clipPathUnits="userSpaceOnUse"
       id="clipPath327">
      <path
         d="M 0,792.06 H 612 V 0.06 H 0 Z"
         id="path327" />
    </clipPath>
    <clipPath
       clipPathUnits="userSpaceOnUse"
       id="clipPath328">
      <path
         d="M 0,792.06 H 612 V 0.06 H 0 Z"
         id="path328" />
    </clipPath>
    <clipPath
       clipPathUnits="userSpaceOnUse"
       id="clipPath329">
      <path
         d="M 0,792.06 H 612 V 0.06 H 0 Z"
         id="path329" />
    </clipPath>
    <clipPath
       clipPathUnits="userSpaceOnUse"
       id="clipPath330">
      <path
         d="M 0,792.06 H 612 V 0.06 H 0 Z"
         id="path330" />
    </clipPath>
    <clipPath
       clipPathUnits="userSpaceOnUse"
       id="clipPath331">
      <path
         d="M 0,792.06 H 612 V 0.06 H 0 Z"
         id="path331" />
    </clipPath>
    <clipPath
       clipPathUnits="userSpaceOnUse"
       id="clipPath332">
      <path
         d="M 0,792.06 H 612 V 0.06 H 0 Z"
         id="path332" />
    </clipPath>
    <clipPath
       clipPathUnits="userSpaceOnUse"
       id="clipPath333">
      <path
         d="M 0,792.06 H 612 V 0.06 H 0 Z"
         id="path333" />
    </clipPath>
    <clipPath
       clipPathUnits="userSpaceOnUse"
       id="clipPath334">
      <path
         d="M 0,792.06 H 612 V 0.06 H 0 Z"
         id="path334" />
    </clipPath>
    <clipPath
       clipPathUnits="userSpaceOnUse"
       id="clipPath335">
      <path
         d="M 0,792.06 H 612 V 0.06 H 0 Z"
         id="path335" />
    </clipPath>
    <clipPath
       clipPathUnits="userSpaceOnUse"
       id="clipPath336">
      <path
         d="M 0,792.06 H 612 V 0.06 H 0 Z"
         id="path336" />
    </clipPath>
    <clipPath
       clipPathUnits="userSpaceOnUse"
       id="clipPath337">
      <path
         d="M 0,792 H 612 V 0 H 0 Z"
         transform="matrix(1.3333333,0,0,-1.3333333,0,1056)"
         clip-rule="evenodd"
         id="path337" />
    </clipPath>
    <clipPath
       clipPathUnits="userSpaceOnUse"
       id="clipPath338">
      <path
         d="M 0,2.004 H 1414.16 V 791.637 H 0 Z"
         transform="matrix(1.3333333,0,0,-1.3333333,0,1056)"
         id="path338" />
    </clipPath>
  </defs>
  <sodipodi:namedview
     id="namedview1"
     pagecolor="#ffffff"
     bordercolor="#000000"
     borderopacity="0.25"
     inkscape:showpageshadow="2"
     inkscape:pageopacity="0.0"
     inkscape:pagecheckerboard="0"
     inkscape:deskcolor="#d1d1d1" />
  <g
     id="g1"
     inkscape:groupmode="layer"
     inkscape:label="1"
     transform="translate(-679.54797,-25.756026)">
    <g
       id="g375"
       inkscape:export-filename="g375.png"
       inkscape:export-xdpi="96"
       inkscape:export-ydpi="96">
      <g
         clip-path="url(#clipPath338)"
         id="g374">
        <g
           clip-path="url(#clipPath337)"
           id="g373">
          <path
             d="m 0,648.699 h 610.209 v -4.77 H 0 Z"
             style="fill:#231f20;fill-opacity:1;fill-rule:nonzero;stroke:none"
             transform="matrix(1.3333333,0,0,-1.3333333,0,1056)"
             clip-path="url(#clipPath302)"
             id="path339" />
          <path
             d="m 164.7,606.255 h 0.999 v -1.674 H 164.7 Z m 0,3.141 h 0.999 v -1.89 H 164.7 Z m 0,3.132 h 0.999 v -1.881 H 164.7 Z m 0,3.141 h 0.999 v -1.881 H 164.7 Z m 0,3.141 h 0.999 v -1.881 H 164.7 Z m 0,3.141 h 0.999 V 620.07 H 164.7 Z m 0,3.141 h 0.999 v -1.89 H 164.7 Z m 0,3.141 h 0.999 v -1.89 H 164.7 Z m 0,3.132 h 0.999 v -1.881 H 164.7 Z m 0,3.141 h 0.999 v -1.881 H 164.7 Z m 0,3.141 h 0.999 v -1.881 H 164.7 Z m 0,3.141 h 0.999 v -1.881 H 164.7 Z m 0,3.141 h 0.999 v -1.89 H 164.7 Z"
             style="fill:#fabc09;fill-opacity:1;fill-rule:nonzero;stroke:none"
             transform="matrix(1.3333333,0,0,-1.3333333,0,1056)"
             clip-path="url(#clipPath303)"
             id="path340" />
          <path
             d="m 16.56,614.913 v 1.269 -1.269 m 0,3.177 v 1.278 -1.278 m 0,3.186 v 1.269 -1.269 m 0,3.177 v 1.278 -1.278 m 0,3.186 v 1.269 -1.269 m 0,3.177 v 1.278 -1.278 m 0,3.186 v 1.269 -1.269 m 0,2.673 v 0"
             style="fill:#fef0cb;fill-opacity:1;fill-rule:nonzero;stroke:none"
             transform="matrix(1.3333333,0,0,-1.3333333,0,1056)"
             clip-path="url(#clipPath304)"
             id="path341" />
          <path
             d="m 16.056,614.913 h 1.008 v -1.908 h -1.008 z m 0,3.177 h 1.008 v -1.908 h -1.008 z m 0,3.186 h 1.008 v -1.908 h -1.008 z m 0,3.177 h 1.008 v -1.908 h -1.008 z m 0,3.186 h 1.008 v -1.908 h -1.008 z m 0,3.177 h 1.008 v -1.908 h -1.008 z m 0,3.186 h 1.008 v -1.908 h -1.008 z m 0,2.673 h 1.008 v -1.404 h -1.008 z"
             style="fill:#fabc09;fill-opacity:1;fill-rule:nonzero;stroke:none"
             transform="matrix(1.3333333,0,0,-1.3333333,0,1056)"
             clip-path="url(#clipPath305)"
             id="path342" />
          <path
             d="m 546.264,699.234 c 20.223,0 36.612,16.443 36.612,36.729 0,20.277 -16.389,36.72 -36.612,36.72 v 2.781 c 21.771,-0.009 39.384,-17.685 39.393,-39.501 -0.009,-21.825 -17.622,-39.501 -39.393,-39.51 v 2.781 m -39.384,36.729 h 2.781 c 0,-20.286 16.389,-36.729 36.603,-36.729 v -2.781 c -21.771,0.009 -39.384,17.685 -39.384,39.51 0,21.816 17.613,39.492 39.384,39.501 v -2.781 c -20.214,0 -36.603,-16.443 -36.603,-36.72 h -2.781"
             style="fill:#ffffff;fill-opacity:1;fill-rule:nonzero;stroke:none"
             transform="matrix(1.3333333,0,0,-1.3333333,0,1056)"
             clip-path="url(#clipPath306)"
             id="path343" />
          <path
             d="m 509.661,735.963 c 0,20.277 16.389,36.72 36.603,36.72 20.223,0 36.612,-16.443 36.612,-36.72 0,-20.286 -16.389,-36.729 -36.612,-36.729 -20.214,0 -36.603,16.443 -36.603,36.729 m 36.666,-35.721 c 19.638,0 35.541,15.93 35.541,35.586 0,19.656 -15.903,35.586 -35.541,35.586 v -2.403 c 9.153,0 17.433,-3.717 23.436,-9.72 5.994,-6.012 9.702,-14.292 9.702,-23.463 0,-9.162 -3.708,-17.451 -9.702,-23.463 -6.003,-6.003 -14.283,-9.711 -23.436,-9.72 -9.144,0.009 -17.424,3.717 -23.418,9.72 -6.003,6.012 -9.702,14.301 -9.711,23.463 0.009,9.171 3.708,17.451 9.711,23.463 5.994,6.003 14.274,9.72 23.418,9.72 v 2.403 c -19.629,0 -35.532,-15.93 -35.532,-35.586 0,-19.656 15.903,-35.586 35.532,-35.586 m -23.292,25.407 c 6.552,-3.033 22.536,3.312 22.536,3.312 l 5.148,-3.528 h 8.802 l -8.307,5.778 c 7.182,2.889 15.39,6.093 18.45,3.033 3.06,-3.069 -5.832,-7.164 -5.832,-7.164 l 0.9,-0.522 c 8.316,3.249 9.792,8.388 4.014,10.782 -5.778,2.394 -21.96,-3.114 -21.96,-3.114 l -4.662,2.691 h -9.018 l 8.1,-5.283 c 0,0 -14.787,-6.831 -18.648,-2.835 -3.186,3.294 5.832,6.993 5.832,6.993 l -0.918,0.558 c -4.842,-1.017 -11.313,-7.524 -4.437,-10.701 m 31.554,17.118 0.99,-2.187 h 6.975 l -6.273,11.835 h -5.49 L 530.289,740.58 h 7.326 l 3.384,2.187 h 13.59 m -21.618,9.783 h 6.021 l 2.493,4.158 c 9.936,0 16.344,0.639 17.613,3.942 1.269,3.312 -6.201,3.312 -6.201,3.312 h -13.311 l -6.615,-11.412 m 11.124,-7.956 7.533,4.86 2.115,-4.86 h -9.648 m 3.942,14.157 h -5.49 l 1.971,3.456 h 5.283 c 0,0 3.393,-0.396 2.817,-1.557 -0.923,-1.837 -4.104,-1.899 -4.533,-1.899 -0.031,0 -0.048,0 -0.048,0"
             style="fill:#b0aeaf;fill-opacity:1;fill-rule:nonzero;stroke:none"
             transform="matrix(1.3333333,0,0,-1.3333333,0,1056)"
             clip-path="url(#clipPath307)"
             id="path344"
             inkscape:export-filename="PAX.svg"
             inkscape:export-xdpi="96"
             inkscape:export-ydpi="96" />
          <path
             d="m 510.795,735.828 c 0,19.656 15.903,35.586 35.532,35.586 v -2.403 c -9.144,0 -17.424,-3.717 -23.418,-9.72 -6.003,-6.012 -9.702,-14.292 -9.711,-23.463 0.009,-9.162 3.708,-17.451 9.711,-23.463 5.994,-6.003 14.274,-9.711 23.418,-9.72 9.153,0.009 17.433,3.717 23.436,9.72 5.994,6.012 9.702,14.301 9.702,23.463 0,9.171 -3.708,17.451 -9.702,23.463 -6.003,6.003 -14.283,9.72 -23.436,9.72 v 2.403 c 19.638,0 35.541,-15.93 35.541,-35.586 0,-19.656 -15.903,-35.586 -35.541,-35.586 v 1.206 -1.206 c -19.629,0 -35.532,15.93 -35.532,35.586 m 35.532,34.38 v 1.206 -1.206"
             style="fill:#ffffff;fill-opacity:1;fill-rule:nonzero;stroke:none"
             transform="matrix(1.3333333,0,0,-1.3333333,0,1056)"
             clip-path="url(#clipPath308)"
             id="path345" />
          <path
             d="m 532.971,752.55 6.615,11.412 h 13.311 c 0,0 7.47,0 6.201,-3.312 -1.269,-3.303 -7.677,-3.942 -17.613,-3.942 l -2.493,-4.158 h -6.021 m 9.576,6.201 h 5.49 c 0,0 3.591,-0.072 4.581,1.899 0.576,1.161 -2.817,1.557 -2.817,1.557 h -5.283 l -1.971,-3.456"
             style="fill:#ffffff;fill-opacity:1;fill-rule:nonzero;stroke:none"
             transform="matrix(1.3333333,0,0,-1.3333333,0,1056)"
             clip-path="url(#clipPath309)"
             id="path346" />
          <path
             d="m 555.579,740.58 -0.99,2.187 h -13.59 l -3.384,-2.187 h -7.326 l 20.502,11.835 h 5.49 l 6.273,-11.835 h -6.975 m -11.484,4.014 h 9.648 l -2.115,4.86 -7.533,-4.86"
             style="fill:#ffffff;fill-opacity:1;fill-rule:nonzero;stroke:none"
             transform="matrix(1.3333333,0,0,-1.3333333,0,1056)"
             clip-path="url(#clipPath310)"
             id="path347" />
          <path
             d="m 523.035,725.649 c -6.876,3.177 -0.405,9.684 4.437,10.701 l 0.918,-0.558 c 0,0 -9.018,-3.699 -5.832,-6.993 3.861,-3.996 18.648,2.835 18.648,2.835 l -8.1,5.283 h 9.018 l 4.662,-2.691 c 0,0 16.182,5.508 21.96,3.114 5.778,-2.394 4.302,-7.533 -4.014,-10.782 l -0.9,0.522 c 0,0 8.892,4.095 5.832,7.164 -3.06,3.06 -11.268,-0.144 -18.45,-3.033 l 8.307,-5.778 h -8.802 l -5.148,3.528 c 0,0 -10.412,-4.133 -17.874,-4.133 -1.784,0 -3.398,0.236 -4.662,0.821"
             style="fill:#ffffff;fill-opacity:1;fill-rule:nonzero;stroke:none"
             transform="matrix(1.3333333,0,0,-1.3333333,0,1056)"
             clip-path="url(#clipPath311)"
             id="path348" />
          <path
             d="M 5.5668516,-8.0393779 C 5.0277891,-8.6349252 3.9496641,-9.0257532 3.1645078,-9.0257532 c -1.4765625,0 -2.55468749,1.1910947 -2.55468749,2.6427413 0,1.3585924 0.82031249,1.9355289 1.95703129,2.4008003 0.6796875,0.2605519 1.5234375,0.5211039 1.5234375,1.4330357 0,0.6699908 -0.4335938,1.2655381 -1.1367188,1.2655381 -0.7265625,0 -1.3476562,-0.5955473 -1.5820312,-1.2841489 l -1.10156254,1.0794295 c 0.609375,1.02359702 1.48828124,1.73080948 2.69531254,1.73080948 1.8046875,0 2.8945312,-1.24692728 2.8945312,-3.01495838 0,-2.940515 -3.4804687,-2.3263568 -3.4804687,-3.8152252 0,-0.5583256 0.5273437,-0.9863752 1.0664062,-0.9863752 0.5742188,0 0.9960938,0.2791628 1.3242188,0.7258233 z m 5.6542964,4.0013337 V 5.1117813e-4 h 1.710938 V -4.0380442 l 2.765625,-4.7457679 H 13.693805 L 12.018023,-5.731632 10.482867,-8.7838121 H 8.4906797 Z m 12.413086,-4.0013337 c -0.539062,-0.5955473 -1.617187,-0.9863753 -2.402343,-0.9863753 -1.476563,0 -2.554688,1.1910947 -2.554688,2.6427413 0,1.3585924 0.820313,1.9355289 1.957031,2.4008003 0.679688,0.2605519 1.523438,0.5211039 1.523438,1.4330357 0,0.6699908 -0.433594,1.2655381 -1.136719,1.2655381 -0.726562,0 -1.347656,-0.5955473 -1.582031,-1.2841489 l -1.101563,1.0794295 c 0.609375,1.02359702 1.488282,1.73080948 2.695313,1.73080948 1.804687,0 2.894531,-1.24692728 2.894531,-3.01495838 0,-2.940515 -3.480469,-2.3263568 -3.480469,-3.8152252 0,-0.5583256 0.527344,-0.9863752 1.066407,-0.9863752 0.574218,0 0.996093,0.2791628 1.324218,0.7258233 z m 6.594727,0.7444342 h 1.769531 v -1.4888684 h -5.25 v 1.4888684 h 1.769531 V 5.1117813e-4 h 1.710938 z m 9.492187,0 V -8.7838121 H 35.185992 V 5.1117813e-4 h 4.535156 V -1.4883572 H 36.89693 v -2.3821893 h 2.71875 V -5.3594149 H 36.89693 V -7.2949437 Z M 50.67525,5.1117813e-4 h 1.722656 L 51.085406,-9.0257532 H 49.843219 L 47.769,-3.2191666 45.61275,-9.0257532 H 44.394 L 42.917438,5.1117813e-4 h 1.722656 L 45.42525,-5.4524691 h 0.02344 l 1.921875,5.5646454 H 47.9565 l 1.992188,-5.5646454 h 0.02344 z m 0,0"
             style="fill:#ffffff;fill-opacity:1;fill-rule:nonzero;stroke:none"
             aria-label="SYSTEM"
             transform="matrix(1.3333333,0,0,0.83956382,693.308,101.72613)"
             clip-path="url(#clipPath312)"
             id="path349" />
          <path
             d="m 40.609,755.529 c -0.061,0.156 -0.127,0.363 -0.217,0.648 0.624,0.302 0.974,0.823 1.155,1.323 h 68.46 l 0.387,1.071 H 41.709 c -0.001,0.012 -0.002,0.025 -0.003,0.036 0.828,1.017 0.774,1.89 0.324,2.493 0.005,0.015 0.01,0.03 0.014,0.045 h 6.052 l -0.162,-0.441 h 3.339 l 2.034,5.508 -0.432,-5.508 h 2.97 l 3.645,5.409 -1.989,-5.409 h 3.366 l 2.799,7.614 h -5.202 l -2.7,-4.086 c 0,0 0.171,2.142 0.216,2.655 0.036,0.387 -0.018,1.431 -0.972,1.431 -0.927,0 -4.275,0 -4.275,0 l -1.512,-4.113 v 7.776 h 79.686 V 755.529 H 40.609 m 34.01,12.717 c -2.241,-0.459 -5.265,-2.097 -5.229,-5.094 0.018,-1.728 2.106,-2.682 4.5,-2.619 1.341,0.036 2.61,0.288 2.781,0.315 l 0.882,2.304 c -1.179,-0.189 -2.304,-0.468 -3.186,-0.117 -1.602,0.639 -0.612,2.304 0.513,2.817 0.495,0.225 1.17,0.441 1.989,0.423 0.333,0 1.161,-0.018 1.476,-0.747 l 1.116,2.673 c -0.84,0.209 -1.682,0.283 -2.447,0.283 -0.98,0 -1.834,-0.122 -2.395,-0.238 m 43.308,-7.542 h 5.22 l 2.799,7.614 h -3.087 l -1.917,-5.22 c 0.027,0.522 0.126,2.601 0.198,3.798 0.018,0.495 -0.081,0.864 -0.324,1.116 -0.279,0.306 -0.666,0.306 -0.666,0.306 h -4.284 l -2.799,-7.614 h 3.105 l 1.989,5.391 -0.234,-5.391 m -10.647,0 h 3.69 l 2.799,7.614 h -3.69 l -2.799,-7.614 m -8.325,0 h 7.2 l 0.936,2.529 h -3.618 l 1.872,5.085 h -3.591 l -2.799,-7.614 m -9.585,0 h 7.776 l 0.747,2.052 H 93.6 l 0.315,0.846 h 4.014 l 0.684,1.881 h -4.005 l 0.306,0.846 h 4.203 l 0.738,1.989 h -7.686 l -2.799,-7.614 m -4.644,2.583 -0.954,-2.583 h 3.51 l 2.808,7.614 h -3.51 l -1.017,-2.745 h -1.854 l 1.008,2.745 h -3.519 l -2.79,-7.614 h 3.501 l 0.954,2.583 h 1.863 m -21.735,-2.583 h 3.69 l 2.799,7.614 h -3.681 l -2.808,-7.614 M 34.12,755.529 c 0.547,0.383 0.847,0.954 0.89,1.512 0.22,0.123 0.422,0.278 0.597,0.459 h 1.305 c 0.187,-0.511 0.544,-0.926 0.924,-1.17 -0.207,-0.291 -0.343,-0.557 -0.424,-0.801 H 34.12 m -5.86,0 v 1.971 h 1.586 c 0.027,-0.517 0.251,-1.077 0.781,-1.584 -0.042,-0.131 -0.092,-0.26 -0.149,-0.387 H 28.26 m 7.938,3.042 c 0.071,0.31 0.075,0.644 -0.009,0.99 0.153,0.198 0.198,0.306 0.288,0.594 0,-0.468 0.324,-0.783 0.468,-1.062 -0.072,-0.177 -0.118,-0.351 -0.144,-0.522 h -0.603 m -7.938,0 v 2.574 h 2.462 c -0.09,-0.145 -0.168,-0.302 -0.23,-0.468 -0.189,-0.468 -0.117,-1.098 -0.009,-1.593 -0.155,-0.13 -0.294,-0.305 -0.404,-0.513 H 28.26"
             style="fill:#2c50a0;fill-opacity:1;fill-rule:nonzero;stroke:none"
             transform="matrix(1.3333333,0,0,-1.3333333,0,1056)"
             clip-path="url(#clipPath313)"
             id="path350" />
          <path
             d="m 129.213,755.232 h 0.306 v -0.306 h -0.306 z M 41.13,754.926 c -0.278,0.157 -0.386,0.254 -0.521,0.603 h 88.298 v 16.452 H 49.221 v 0.612 h 79.992 v -0.306 0.306 h 0.306 v -17.361 h -0.306 v -0.306 H 41.13 m -7.982,0 c 0.024,0.069 0.051,0.141 0.08,0.216 0.347,0.078 0.645,0.214 0.892,0.387 h 3.292 c -0.074,-0.219 -0.103,-0.419 -0.1,-0.603 h -4.164 m -5.185,0 h -0.306 v 0.306 h 0.306 -0.306 v 5.913 h 0.603 v -2.574 H 27.963 V 757.5 h 0.297 v -1.971 h 2.218 c -0.091,-0.203 -0.2,-0.403 -0.323,-0.603 h -2.192"
             style="fill:#ffffff;fill-opacity:1;fill-rule:nonzero;stroke:none"
             transform="matrix(1.3333333,0,0,-1.3333333,0,1056)"
             clip-path="url(#clipPath314)"
             id="path351" />
          <path
             d="m 41.547,757.5 c 0.151,0.417 0.185,0.82 0.162,1.071 h 68.685 l -0.387,-1.071 h -68.46 m -5.94,0 c 0.286,0.297 0.497,0.663 0.591,1.071 h 0.603 c -0.058,-0.383 -0.008,-0.746 0.111,-1.071 h -1.305 m -7.644,0 v 1.071 h 2.116 c -0.159,-0.303 -0.254,-0.675 -0.233,-1.071 h -1.883"
             style="fill:#f7ed19;fill-opacity:1;fill-rule:nonzero;stroke:none"
             transform="matrix(1.3333333,0,0,-1.3333333,0,1056)"
             clip-path="url(#clipPath315)"
             id="path352" />
          <path
             d="m 57.501,760.704 1.989,5.409 -3.645,-5.409 h -2.97 l 0.432,5.508 -2.034,-5.508 h -3.339 l 0.162,0.441 h 1.125 v 3.06 l 1.512,4.113 c 0,0 3.348,0 4.275,0 0.954,0 1.008,-1.044 0.972,-1.431 -0.045,-0.513 -0.216,-2.655 -0.216,-2.655 l 2.7,4.086 h 5.202 l -2.799,-7.614 h -3.366"
             style="fill:#ffffff;fill-opacity:1;fill-rule:nonzero;stroke:none"
             transform="matrix(1.3333333,0,0,-1.3333333,0,1056)"
             clip-path="url(#clipPath316)"
             id="path353" />
          <path
             d="m 69.39,763.152 c -0.036,2.997 2.988,4.635 5.229,5.094 0.999,0.207 2.925,0.432 4.842,-0.045 l -1.116,-2.673 c -0.315,0.729 -1.143,0.747 -1.476,0.747 -0.819,0.018 -1.494,-0.198 -1.989,-0.423 -1.125,-0.513 -2.115,-2.178 -0.513,-2.817 0.882,-0.351 2.007,-0.072 3.186,0.117 l -0.882,-2.304 c -0.171,-0.027 -1.44,-0.279 -2.781,-0.315 -0.074,-0.002 -0.149,-0.003 -0.222,-0.003 -2.3,0 -4.261,0.948 -4.278,2.622"
             style="fill:#ffffff;fill-opacity:1;fill-rule:nonzero;stroke:none"
             transform="matrix(1.3333333,0,0,-1.3333333,0,1056)"
             clip-path="url(#clipPath317)"
             id="path354" />
          <path
             d="m 107.28,760.704 2.799,7.614 h 3.69 l -2.799,-7.614 h -3.69"
             style="fill:#ffffff;fill-opacity:1;fill-rule:nonzero;stroke:none"
             transform="matrix(1.3333333,0,0,-1.3333333,0,1056)"
             clip-path="url(#clipPath318)"
             id="path355" />
          <path
             d="m 62.991,760.704 2.808,7.614 h 3.681 l -2.799,-7.614 h -3.69"
             style="fill:#ffffff;fill-opacity:1;fill-rule:nonzero;stroke:none"
             transform="matrix(1.3333333,0,0,-1.3333333,0,1056)"
             clip-path="url(#clipPath319)"
             id="path356" />
          <path
             d="m 83.772,760.704 0.954,2.583 h -1.863 l -0.954,-2.583 h -3.501 l 2.79,7.614 h 3.519 l -1.008,-2.745 h 1.854 l 1.017,2.745 h 3.51 l -2.808,-7.614 h -3.51"
             style="fill:#ffffff;fill-opacity:1;fill-rule:nonzero;stroke:none"
             transform="matrix(1.3333333,0,0,-1.3333333,0,1056)"
             clip-path="url(#clipPath320)"
             id="path357" />
          <path
             d="m 98.955,760.704 2.799,7.614 h 3.591 l -1.872,-5.085 h 3.618 l -0.936,-2.529 h -7.2"
             style="fill:#ffffff;fill-opacity:1;fill-rule:nonzero;stroke:none"
             transform="matrix(1.3333333,0,0,-1.3333333,0,1056)"
             clip-path="url(#clipPath321)"
             id="path358" />
          <path
             d="m 117.927,760.704 0.234,5.391 -1.989,-5.391 h -3.105 l 2.799,7.614 h 4.284 c 0,0 0.387,0 0.666,-0.306 0.243,-0.252 0.342,-0.621 0.324,-1.116 -0.072,-1.197 -0.171,-3.276 -0.198,-3.798 l 1.917,5.22 h 3.087 l -2.799,-7.614 h -5.22"
             style="fill:#ffffff;fill-opacity:1;fill-rule:nonzero;stroke:none"
             transform="matrix(1.3333333,0,0,-1.3333333,0,1056)"
             clip-path="url(#clipPath322)"
             id="path359" />
          <path
             d="m 89.37,760.704 2.799,7.614 h 7.686 l -0.738,-1.989 h -4.203 l -0.306,-0.846 h 4.005 l -0.684,-1.881 H 93.915 L 93.6,762.756 h 4.293 l -0.747,-2.052 H 89.37"
             style="fill:#ffffff;fill-opacity:1;fill-rule:nonzero;stroke:none"
             transform="matrix(1.3333333,0,0,-1.3333333,0,1056)"
             clip-path="url(#clipPath323)"
             id="path360" />
          <path
             d="m 30.951,750.831 c -0.63,0.027 -1.404,0.459 -1.836,1.026 -0.549,0.72 -0.468,1.044 0.009,1.656 0.675,0.864 1.242,1.584 1.503,2.403 -1.215,1.161 -0.819,2.601 -0.144,3.168 -0.108,0.495 -0.18,1.125 0.009,1.593 0.062,0.166 0.14,0.323 0.23,0.468 h 0.722 c -1.177,-1.335 -0.103,-3.358 1.1,-3.771 2.466,-0.864 3.348,1.224 3.141,1.872 -0.981,-0.693 -2.151,-0.423 -2.601,-0.189 -0.888,0.461 -1.439,1.133 -1.539,2.088 h 0.442 c 0.015,-0.812 0.597,-1.535 1.205,-1.773 1.746,-0.684 2.916,0.477 2.844,1.314 -1.004,-0.241 -2.017,-0.092 -2.861,0.459 h 0.741 c 0.385,-0.167 0.787,-0.253 1.157,-0.234 0.458,0.023 0.842,0.107 1.163,0.234 h 0.938 c -0.669,-1.258 0.523,-3.06 2.183,-3.069 2.079,-0.018 2.736,1.737 2.331,2.502 -1.172,-1.447 -3.885,-1.177 -4.451,0.567 h 0.38 c 0.311,-0.716 1.174,-1.144 2.019,-1.152 0.776,-0.007 1.617,0.411 1.872,1.152 h 0.536 c -0.004,-0.015 -0.009,-0.03 -0.014,-0.045 0.45,-0.603 0.504,-1.476 -0.324,-2.493 0.063,-0.531 -0.144,-1.863 -1.314,-2.43 0.36,-1.143 0.342,-1.026 1.098,-1.449 0.675,-0.387 1.053,-0.819 1.044,-1.422 0.099,-0.153 0.009,-0.396 -0.081,-0.603 -0.387,-0.837 -2.358,-1.044 -2.961,-0.828 -0.711,0.252 -0.774,1.008 -1.197,1.44 -0.36,0.378 -1.719,1.242 -0.459,3.015 -0.729,0.468 -1.377,1.566 -0.891,2.763 -0.144,0.279 -0.468,0.594 -0.468,1.062 -0.09,-0.288 -0.135,-0.396 -0.288,-0.594 0.261,-1.08 -0.324,-2.043 -1.179,-2.52 -0.063,-0.81 -0.666,-1.647 -1.782,-1.899 -0.252,-0.657 -0.351,-1.071 -0.324,-1.332 0.036,-0.261 0.378,-1.341 0.297,-1.863 -0.126,-0.829 -0.883,-1.121 -1.996,-1.121 -0.083,0 -0.168,0.002 -0.254,0.005 m -1.395,2.313 c -0.369,-0.513 -0.234,-0.765 0.018,-1.098 0.495,-0.603 1.395,-0.909 2.061,-0.72 v 0.09 c -0.801,-0.081 -1.503,0.225 -1.863,0.765 l 0.054,0.054 c 0.936,-0.729 2.16,-0.531 2.637,-0.288 0.126,0.063 0.216,0.243 0.198,0.405 -0.045,0.387 -0.261,1.035 -0.306,1.404 -0.036,0.297 0.072,0.819 0.297,1.431 -0.378,-0.009 -1.224,0.09 -1.458,0.459 -0.54,-1.17 -1.026,-1.647 -1.638,-2.502 m 8.388,2.322 c -0.144,-0.531 -0.288,-0.936 0.729,-1.89 0.45,-0.432 0.342,-0.837 1.053,-1.17 0.612,-0.279 2.106,0.063 2.286,0.477 l -0.072,0.045 c -0.612,-0.549 -1.773,-0.495 -1.89,-0.333 l 0.036,0.09 c 0.576,-0.018 1.377,0.099 1.701,0.432 0.819,0.837 -0.864,1.26 -1.269,1.656 -0.423,0.036 -0.954,-0.126 -0.954,-0.126 l -0.108,0.333 c 0,0 0.369,0.117 0.774,0.144 l -0.126,0.333 c -0.432,-0.027 -0.819,-0.126 -0.819,-0.126 l -0.117,0.342 c 0,0 0.378,0.099 0.837,0.144 l -0.054,0.27 c -0.612,-0.162 -0.936,-0.216 -1.611,0.054 -0.207,-0.27 -0.333,-0.432 -0.396,-0.675 m -6.147,0.252 c 1.764,-0.612 2.511,0.558 2.637,1.215 -0.468,-0.117 -2.511,-0.531 -3.636,1.683 -0.792,-0.702 -0.234,-2.475 0.999,-2.898 m 7.362,0.621 c 1.962,-0.099 2.007,1.692 1.971,1.908 -0.387,-0.306 -0.999,-0.558 -1.746,-0.54 -0.837,0.027 -1.449,0.369 -1.971,0.963 -0.315,-1.53 0.666,-2.277 1.746,-2.331"
             style="fill:#252121;fill-opacity:1;fill-rule:nonzero;stroke:none"
             transform="matrix(1.3333333,0,0,-1.3333333,0,1056)"
             clip-path="url(#clipPath324)"
             id="path361" />
          <path
             d="m 33.916,761.145 h 2.32 c -0.321,-0.127 -0.705,-0.211 -1.163,-0.234 -0.034,-0.002 -0.067,-0.002 -0.102,-0.002 -0.341,0 -0.705,0.084 -1.055,0.236"
             style="fill:#ffffff;fill-opacity:1;fill-rule:nonzero;stroke:none"
             transform="matrix(1.3333333,0,0,-1.3333333,0,1056)"
             clip-path="url(#clipPath325)"
             id="path362" />
          <path
             d="m 33.192,759.372 c -0.608,0.238 -1.19,0.961 -1.205,1.773 h 1.188 c 0.844,-0.551 1.857,-0.7 2.861,-0.459 0.057,-0.66 -0.658,-1.521 -1.819,-1.521 -0.312,0 -0.655,0.062 -1.025,0.207"
             style="fill:#ffffff;fill-opacity:1;fill-rule:nonzero;stroke:none"
             transform="matrix(1.3333333,0,0,-1.3333333,0,1056)"
             clip-path="url(#clipPath326)"
             id="path363" />
          <path
             d="m 31.797,755.718 c -1.233,0.423 -1.791,2.196 -0.999,2.898 1.125,-2.214 3.168,-1.8 3.636,-1.683 -0.101,-0.528 -0.603,-1.387 -1.711,-1.387 -0.272,0 -0.579,0.052 -0.926,0.172"
             style="fill:#ffffff;fill-opacity:1;fill-rule:nonzero;stroke:none"
             transform="matrix(1.3333333,0,0,-1.3333333,0,1056)"
             clip-path="url(#clipPath327)"
             id="path364" />
          <path
             d="m 32.544,757.374 c -1.203,0.413 -2.277,2.436 -1.1,3.771 h 0.101 c 0.1,-0.955 0.651,-1.627 1.539,-2.088 0.45,-0.234 1.62,-0.504 2.601,0.189 0.172,-0.54 -0.411,-2.078 -2.035,-2.078 -0.326,0 -0.694,0.062 -1.106,0.206"
             style="fill:#ffffff;fill-opacity:1;fill-rule:nonzero;stroke:none"
             transform="matrix(1.3333333,0,0,-1.3333333,0,1056)"
             clip-path="url(#clipPath328)"
             id="path365" />
          <path
             d="m 39.726,752.406 c -0.711,0.333 -0.603,0.738 -1.053,1.17 -1.017,0.954 -0.873,1.359 -0.729,1.89 0.063,0.243 0.189,0.405 0.396,0.675 0.675,-0.27 0.999,-0.216 1.611,-0.054 l 0.054,-0.27 c -0.459,-0.045 -0.837,-0.144 -0.837,-0.144 l 0.117,-0.342 c 0,0 0.387,0.099 0.819,0.126 l 0.126,-0.333 c -0.405,-0.027 -0.774,-0.144 -0.774,-0.144 l 0.108,-0.333 c 0,0 0.531,0.162 0.954,0.126 0.405,-0.396 2.088,-0.819 1.269,-1.656 -0.324,-0.333 -1.125,-0.45 -1.701,-0.432 l -0.036,-0.09 c 0.117,-0.162 1.278,-0.216 1.89,0.333 l 0.072,-0.045 c -0.134,-0.309 -1.002,-0.578 -1.688,-0.578 -0.232,0 -0.443,0.03 -0.598,0.101"
             style="fill:#ffffff;fill-opacity:1;fill-rule:nonzero;stroke:none"
             transform="matrix(1.3333333,0,0,-1.3333333,0,1056)"
             clip-path="url(#clipPath329)"
             id="path366" />
          <path
             d="m 39.159,756.339 c -1.08,0.054 -2.061,0.801 -1.746,2.331 0.522,-0.594 1.134,-0.936 1.971,-0.963 0.747,-0.018 1.359,0.234 1.746,0.54 0.035,-0.21 -0.006,-1.912 -1.817,-1.912 -0.05,0 -0.101,10e-4 -0.154,0.004"
             style="fill:#ffffff;fill-opacity:1;fill-rule:nonzero;stroke:none"
             transform="matrix(1.3333333,0,0,-1.3333333,0,1056)"
             clip-path="url(#clipPath330)"
             id="path367" />
          <path
             d="m 39.357,758.076 c -1.66,0.009 -2.852,1.811 -2.183,3.069 h 0.063 c 0.566,-1.744 3.279,-2.014 4.451,-0.567 0.403,-0.761 -0.245,-2.502 -2.299,-2.502 -0.011,0 -0.022,0 -0.032,0"
             style="fill:#ffffff;fill-opacity:1;fill-rule:nonzero;stroke:none"
             transform="matrix(1.3333333,0,0,-1.3333333,0,1056)"
             clip-path="url(#clipPath331)"
             id="path368" />
          <path
             d="m 39.636,759.993 c -0.845,0.008 -1.708,0.436 -2.019,1.152 h 3.891 c -0.253,-0.735 -1.083,-1.152 -1.854,-1.152 -0.006,0 -0.012,0 -0.018,0"
             style="fill:#ffffff;fill-opacity:1;fill-rule:nonzero;stroke:none"
             transform="matrix(1.3333333,0,0,-1.3333333,0,1056)"
             clip-path="url(#clipPath332)"
             id="path369" />
          <path
             d="m 29.574,752.046 c -0.252,0.333 -0.387,0.585 -0.018,1.098 0.612,0.855 1.098,1.332 1.638,2.502 0.234,-0.369 1.08,-0.468 1.458,-0.459 -0.225,-0.612 -0.333,-1.134 -0.297,-1.431 0.045,-0.369 0.261,-1.017 0.306,-1.404 0.018,-0.162 -0.072,-0.342 -0.198,-0.405 -0.477,-0.243 -1.701,-0.441 -2.637,0.288 l -0.054,-0.054 c 0.36,-0.54 1.062,-0.846 1.863,-0.765 v -0.09 c -0.132,-0.038 -0.274,-0.056 -0.42,-0.056 -0.588,0 -1.244,0.293 -1.641,0.776 m 1.287,1.863 c 0.279,-0.009 0.711,-0.054 1.053,-0.162 l 0.108,0.342 c -0.378,0.108 -0.855,0.162 -1.152,0.171 l -0.009,-0.351 m 0.171,0.72 c 0.513,-0.027 0.612,-0.036 1.08,-0.18 l 0.108,0.333 c -0.504,0.153 -0.63,0.171 -1.179,0.189 l -0.009,-0.342"
             style="fill:#ffffff;fill-opacity:1;fill-rule:nonzero;stroke:none"
             transform="matrix(1.3333333,0,0,-1.3333333,0,1056)"
             clip-path="url(#clipPath333)"
             id="path370" />
          <path
             d="m 30.861,753.909 0.009,0.351 c 0.297,-0.009 0.774,-0.063 1.152,-0.171 l -0.108,-0.342 c -0.342,0.108 -0.774,0.153 -1.053,0.162"
             style="fill:#252121;fill-opacity:1;fill-rule:nonzero;stroke:none"
             transform="matrix(1.3333333,0,0,-1.3333333,0,1056)"
             clip-path="url(#clipPath334)"
             id="path371" />
          <path
             d="m 31.032,754.629 0.009,0.342 c 0.549,-0.018 0.675,-0.036 1.179,-0.189 l -0.108,-0.333 c -0.468,0.144 -0.567,0.153 -1.08,0.18"
             style="fill:#252121;fill-opacity:1;fill-rule:nonzero;stroke:none"
             transform="matrix(1.3333333,0,0,-1.3333333,0,1056)"
             clip-path="url(#clipPath335)"
             id="path372" />
          <path
             d="m 165.202,242.261 v -39.35"
             style="fill:none;stroke:#fbbc09;stroke-width:1;stroke-linecap:butt;stroke-linejoin:miter;stroke-miterlimit:4;stroke-dasharray:1.884, 1.256;stroke-dashoffset:0;stroke-opacity:1"
             transform="matrix(1.3333333,0,0,-1.3333333,0,1056)"
             clip-path="url(#clipPath336)"
             id="path373" />
        </g>
      </g>
    </g>
  </g>
</svg>
