<?xml version="1.0" encoding="UTF-8" standalone="no"?>
<!-- Created with Inkscape (http://www.inkscape.org/) -->
<svg
   xmlns:dc="http://purl.org/dc/elements/1.1/"
   xmlns:cc="http://web.resource.org/cc/"
   xmlns:rdf="http://www.w3.org/1999/02/22-rdf-syntax-ns#"
   xmlns:svg="http://www.w3.org/2000/svg"
   xmlns="http://www.w3.org/2000/svg"
   xmlns:sodipodi="http://sodipodi.sourceforge.net/DTD/sodipodi-0.dtd"
   xmlns:inkscape="http://www.inkscape.org/namespaces/inkscape"
   width="699.44879"
   height="115.40551"
   id="svg4938"
   sodipodi:version="0.32"
   inkscape:version="0.44"
   version="1.0"
   sodipodi:docbase="C:\Dokumente und Einstellungen\Andreas\Eigene Dateien\Eigene Bilder\sonstiges\Logos\Vektor\Computer, Electronics"
   sodipodi:docname="Varta-Logo.svg">
  <defs
     id="defs4940" />
  <sodipodi:namedview
     id="base"
     pagecolor="#ffffff"
     bordercolor="#666666"
     borderopacity="1.0"
     inkscape:pageopacity="0.0"
     inkscape:pageshadow="2"
     inkscape:zoom="0.35824168"
     inkscape:cx="372.04724"
     inkscape:cy="526.18109"
     inkscape:document-units="px"
     inkscape:current-layer="layer1"
     height="32.57mm"
     width="197.4mm"
     inkscape:window-width="904"
     inkscape:window-height="574"
     inkscape:window-x="138"
     inkscape:window-y="138" />
  <metadata
     id="metadata4943">
    <rdf:RDF>
      <cc:Work
         rdf:about="">
        <dc:format>image/svg+xml</dc:format>
        <dc:type
           rdf:resource="http://purl.org/dc/dcmitype/StillImage" />
      </cc:Work>
    </rdf:RDF>
  </metadata>
  <g
     inkscape:label="Ebene 1"
     inkscape:groupmode="layer"
     id="layer1"
     transform="translate(37.71096,-394.7065)">
    <g
       id="g4965"
       transform="translate(1.779983,1.77573)">
      <path
         style="fill:#10238c;fill-opacity:1"
         id="path3143"
         class="ps04 ps22"
         d="M 446.43619,394.70647 C 446.26999,394.70647 446.43619,422.62845 446.43619,422.79465 L 479.17804,422.79465 L 479.17804,506.56058 L 512.08608,506.56058 L 512.08608,422.79465 L 544.99413,422.79465 C 545.16033,422.79465 544.99413,394.70647 544.99413,394.70647 L 446.43619,394.70647" />
      <path
         style="fill:#10238c;fill-opacity:1"
         id="path3145"
         class="ps04 ps22"
         d="M 181.84221,506.56058 C 197.63143,469.99609 213.91925,431.93577 228.37884,394.70647 L 193.14397,394.70647 C 183.67044,418.63959 164.05857,468.16786 164.05857,468.16786 C 154.25264,444.73335 145.27772,418.30719 134.80698,394.70647 L 100.73552,394.70647 C 115.02891,432.26818 130.31952,469.99609 146.44114,506.56058 L 181.84221,506.56058" />
      <path
         style="fill:#10238c;fill-opacity:1"
         id="path3149"
         class="ps04 ps22"
         d="M 419.34523,464.34521 L 418.51422,463.01559 C 433.14001,454.87168 441.28392,435.92463 438.62469,423.12705 C 432.64141,394.70647 406.71386,394.70647 399.06855,394.70647 C 390.42604,394.70647 345.71763,394.70647 345.71763,394.70647 L 345.71763,506.56058 L 378.12707,506.56058 L 378.12707,460.02395 L 416.85219,506.56058 L 456.57453,506.56058 L 419.34523,464.34521 z M 392.75287,445.23195 C 388.26541,445.23195 377.96087,445.23195 377.96087,445.23195 L 377.96087,419.4706 C 377.96087,419.4706 388.76401,419.4706 392.75287,419.4706 C 398.23754,419.4706 406.88006,422.96085 406.88006,432.43438 C 406.88006,441.90791 397.24033,445.23195 392.75287,445.23195" />
      <path
         style="fill:#10238c;fill-opacity:1"
         id="path3151"
         class="ps04 ps22"
         d="M 290.37228,394.70647 L 255.96842,394.70647 L 208.76698,506.56058 L 241.84123,506.56058 L 241.84123,506.56058 L 248.98792,491.60238 L 296.68797,491.60238 L 304.83188,506.56058 L 339.40195,506.56058 C 339.40195,506.56058 306.8263,431.10476 290.37228,394.70647 z M 260.12347,465.67483 L 272.75484,430.10755 L 286.88204,465.67483 L 260.12347,465.67483" />
      <path
         style="fill:#10238c;fill-opacity:1"
         id="path3153"
         class="ps04 ps22"
         d="M 609.14819,394.70647 L 574.74433,394.70647 L 527.54289,506.56058 L 560.61714,506.56058 L 560.61714,506.56058 L 567.76383,491.60238 L 615.46388,491.60238 L 623.60779,506.56058 L 658.17786,506.56058 C 658.17786,506.56058 625.60222,431.10476 609.14819,394.70647 z M 578.89938,465.67483 L 591.53076,430.10755 L 605.82415,465.67483 L 578.89938,465.67483" />
      <path
         style="fill:#10238c;fill-opacity:1"
         id="path3157"
         class="ps015 ps22"
         d="M -37.544753,398.19672 L 66.996461,398.19672 L 66.996461,503.23654 L -37.544753,503.23654 L -37.544753,398.19672 z " />
      <path
         style="fill:#ffc907;fill-opacity:1"
         id="path3159"
         class="ps016 ps22"
         d="M 14.642753,491.10377 L -37.710955,398.19672 L 66.996461,398.19672 L 14.642753,491.10377" />
      <path
         id="path3161"
         class="ps017 ps12 ps22"
         d="M 14.642753,491.10377 L -37.212348,398.86153 M 66.664057,398.86153 L 14.642753,491.10377" />
    </g>
  </g>
</svg>
